<?xml version="1.0" encoding="utf-8" standalone="no"?>
<!DOCTYPE svg PUBLIC "-//W3C//DTD SVG 1.1//EN"
  "http://www.w3.org/Graphics/SVG/1.1/DTD/svg11.dtd">
<svg xmlns:xlink="http://www.w3.org/1999/xlink" width="280.512pt" height="280.512pt" viewBox="0 0 280.512 280.512" xmlns="http://www.w3.org/2000/svg" version="1.1">
 <metadata>
  <rdf:RDF xmlns:dc="http://purl.org/dc/elements/1.1/" xmlns:cc="http://creativecommons.org/ns#" xmlns:rdf="http://www.w3.org/1999/02/22-rdf-syntax-ns#">
   <cc:Work>
    <dc:type rdf:resource="http://purl.org/dc/dcmitype/StillImage"/>
    <dc:date>2023-06-08T19:32:39.180622</dc:date>
    <dc:format>image/svg+xml</dc:format>
    <dc:creator>
     <cc:Agent>
      <dc:title>Matplotlib v3.6.0, https://matplotlib.org/</dc:title>
     </cc:Agent>
    </dc:creator>
   </cc:Work>
  </rdf:RDF>
 </metadata>
 <defs>
  <style type="text/css">*{stroke-linejoin: round; stroke-linecap: butt}</style>
 </defs>
 <g id="figure_1">
  <g id="patch_1">
   <path d="M 0 280.512 
L 280.512 280.512 
L 280.512 0 
L 0 0 
L 0 280.512 
z
" style="fill: none"/>
  </g>
  <g id="axes_1">
   <g id="patch_2">
    <path d="M 140.256 273.312 
C 175.542864 273.312 209.389219 259.29238 234.3408 234.3408 
C 259.29238 209.389219 273.312 175.542864 273.312 140.256 
C 273.312 104.969136 259.29238 71.122781 234.3408 46.1712 
C 209.389219 21.21962 175.542864 7.2 140.256 7.2 
C 104.969136 7.2 71.122781 21.21962 46.1712 46.1712 
C 21.21962 71.122781 7.2 104.969136 7.2 140.256 
C 7.2 175.542864 21.21962 209.389219 46.1712 234.3408 
C 71.122781 259.29238 104.969136 273.312 140.256 273.312 
z
" clip-path="url(#pb079279670)" style="fill: #ffffff; stroke: #ffffff; stroke-linejoin: miter"/>
   </g>
   <g id="line2d_1">
    <path d="M 212.385342 197.304653 
L 214.233479 192.688948 
L 209.857266 189.998552 
L 211.170528 185.209868 
L 207.912 181.316646 
L 209.508668 176.62376 
L 205.439817 173.594085 
L 207.40904 168.9757 
L 204.318152 165.307361 
L 206.121055 160.675678 
L 202.823931 156.795765 
L 204.142513 151.871357 
L 199.75832 150.052475 
L 197.169051 146.063455 
L 192.253962 144.847321 
L 191.713747 139.897657 
L 188.380708 136.069617 
L 188.650816 131.105314 
L 184.247985 128.617153 
L 183.146278 123.789894 
L 178.831277 122.65225 
L 175.629941 126.638611 
L 170.796023 125.466392 
L 166.317361 123.313551 
L 164.426629 127.998447 
L 159.383815 128.607854 
L 156.986143 133.073197 
L 151.922032 132.451832 
L 149.429892 136.808088 
L 144.379079 136.689662 
L 142.88088 140.935492 
L 141.163126 144.877938 
L 138.709561 149.320663 
L 140.480548 154.137304 
L 137.855344 158.50154 
L 139.892439 163.194415 
L 136.935934 167.356415 
L 139.020924 172.030673 
L 137.80611 176.748845 
L 142.404537 178.865751 
L 147.211839 177.358232 
L 150.830963 180.960059 
L 155.462647 178.87241 
L 159.862818 181.443051 
L 164.933568 181.223507 
L 166.502299 176.329716 
L 162.044935 174.127641 
L 161.809423 169.05953 
L 157.01808 167.332457 
L 154.418152 162.941605 
L 149.339403 163.411309 
L 146.179323 159.434267 
L 149.36202 155.534396 
L 148.433292 150.538137 
L 153.056996 148.904214 
L 155.171262 144.223296 
L 160.235373 143.621889 
L 162.969664 139.342803 
L 167.888752 140.648086 
L 171.364174 136.914535 
L 175.987858 138.62431 
L 179.63494 135.0451 
L 182.487657 138.630949 
L 179.96358 142.847502 
L 184.077666 144.8633 
L 184.069687 149.939389 
L 187.888387 153.220534 
L 186.305038 158.059793 
L 189.519671 161.99292 
L 189.049968 167.06235 
L 193.307776 169.823278 
L 192.244643 174.787601 
L 195.501852 178.654196 
L 193.255882 183.204709 
L 196.304195 187.277559 
L 195.555085 192.309734 
" clip-path="url(#pb079279670)" style="fill: none; stroke: #800080; stroke-width: 1.5; stroke-linecap: square"/>
   </g>
   <g id="line2d_2">
    <path d="M 68.646266 82.813961 
L 66.629139 87.351175 
L 70.901565 90.170636 
L 69.590963 94.947342 
L 72.85616 98.836574 
L 71.302067 103.52945 
L 75.341651 106.611019 
L 73.263311 111.17617 
L 76.319603 114.881785 
L 74.347721 119.489511 
L 77.570333 123.382743 
L 76.270379 128.280534 
L 80.665221 130.000947 
L 83.214574 134.100394 
L 88.100387 135.429634 
L 88.500889 140.379319 
L 91.711523 144.307126 
L 91.667618 149.283408 
L 96.070438 151.75825 
L 97.045741 156.597508 
L 101.371391 157.772387 
L 104.590024 153.775388 
L 109.413304 155.010139 
L 113.85603 157.218874 
L 115.801316 152.579212 
L 120.849469 151.999081 
L 123.232502 147.513781 
L 128.284635 148.200338 
L 131.022925 144.033019 
L 136.104334 144.228616 
L 137.444213 139.827125 
L 139.265734 135.972488 
L 141.729938 131.531083 
L 139.978929 126.723781 
L 142.585495 122.366185 
L 140.593634 117.673309 
L 143.566117 113.539246 
L 141.564958 108.839711 
L 143.072477 104.282539 
L 138.600454 101.926123 
L 133.713322 103.332534 
L 129.942515 99.86907 
L 125.24696 101.848952 
L 120.889384 99.174534 
L 115.822613 99.36879 
L 114.158073 104.237305 
L 118.588841 106.495273 
L 118.809714 111.570023 
L 123.621015 113.242542 
L 126.137113 117.691927 
L 131.218522 117.364606 
L 134.306751 121.401541 
L 131.110735 125.333328 
L 132.040803 130.314949 
L 127.339928 131.837106 
L 125.24296 136.519363 
L 120.17087 137.04626 
L 117.323473 141.241515 
L 112.412383 139.898976 
L 108.939621 143.636527 
L 104.351853 141.882838 
L 100.656877 145.419473 
L 97.854724 141.77905 
L 100.414726 137.555858 
L 96.372482 135.536081 
L 96.351185 130.434694 
L 92.527165 127.141571 
L 94.206323 122.367525 
L 91.059551 118.439697 
L 91.686246 113.396883 
L 87.41249 110.631976 
L 88.276016 105.619758 
L 85.109287 101.658675 
L 87.435107 97.156076 
L 84.466624 93.019354 
L 85.608247 88.069669 
" clip-path="url(#pb079279670)" style="fill: none; stroke: #800080; stroke-width: 1.5; stroke-linecap: square"/>
   </g>
  </g>
 </g>
 <defs>
  <clipPath id="pb079279670">
   <rect x="7.2" y="7.2" width="266.112" height="266.112"/>
  </clipPath>
 </defs>
</svg>
